<svg class="svg-icon" style="width: 1em; height: 1em;vertical-align: middle;fill: currentColor;overflow: hidden;" viewBox="0 0 1024 1024" version="1.1" xmlns="http://www.w3.org/2000/svg"><path d="M192.008043 1024A192.265427 192.265427 0 0 1 0 831.991957V255.967827A192.136735 192.136735 0 0 1 192.008043 63.959784h192.008043a64.02413 64.02413 0 0 1 0 128.048259H192.008043a64.345859 64.345859 0 0 0-64.024129 63.959784v576.02413a63.959784 63.959784 0 0 0 64.024129 63.895438h575.959784a63.895438 63.895438 0 0 0 64.02413-63.895438V639.983914a64.02413 64.02413 0 0 1 128.048259 0v192.008043a192.329773 192.329773 0 0 1-192.008043 192.008043z m127.983914-256.032173a64.345859 64.345859 0 0 1-64.02413-64.345859V511.935654a64.345859 64.345859 0 0 1 18.788991-45.042101L722.732688 18.982028a63.831092 63.831092 0 0 1 90.534624 0l192.008043 191.943698a63.959784 63.959784 0 0 1 0 90.534623l-447.97587 447.911525a63.573709 63.573709 0 0 1-45.042102 18.788991z m64.345859-229.586025v101.602112H485.811235l384.016087-384.016087-101.537766-101.47342z" fill="#8F9BB3" /></svg>